<svg id="Layer_1" data-name="Layer 1" xmlns="http://www.w3.org/2000/svg" xmlns:xlink="http://www.w3.org/1999/xlink" viewBox="0 0 775 521.2"><defs><style>.cls-1{fill:#fff;}.cls-2{fill:#d3e0f4;}.cls-3{fill:none;}.cls-4{fill:#fff59b;}.cls-5{fill:url(#linear-gradient);}.cls-6{fill:url(#linear-gradient-2);}.cls-7{fill:url(#linear-gradient-3);}.cls-8{fill:url(#linear-gradient-4);}.cls-9{fill:url(#linear-gradient-5);}</style><linearGradient id="linear-gradient" x1="561.16" y1="21.42" x2="219.89" y2="376.33" gradientUnits="userSpaceOnUse"><stop offset="0" stop-color="#4777f0"/><stop offset="1" stop-color="#1153fc"/></linearGradient><linearGradient id="linear-gradient-2" x1="499.38" y1="284.65" x2="235.47" y2="574.34" xlink:href="#linear-gradient"/><linearGradient id="linear-gradient-3" x1="567.42" y1="27.43" x2="226.15" y2="382.35" xlink:href="#linear-gradient"/><linearGradient id="linear-gradient-4" x1="612.74" y1="656.41" x2="508.94" y2="829.41" gradientTransform="translate(0 -393.34)" gradientUnits="userSpaceOnUse"><stop offset="0" stop-color="#7cd1ff"/><stop offset="0.99" stop-color="#0cc2ed"/></linearGradient><linearGradient id="linear-gradient-5" x1="623.18" y1="639.64" x2="508.09" y2="831.45" xlink:href="#linear-gradient-4"/></defs><title>Artboard 1 copy</title><path class="cls-1" d="M555.1,434.5l3.1,3-.7,4.1-3.8,22.2a3.66,3.66,0,0,0,1.4,3.5,3.71,3.71,0,0,0,3.8.3l23.6-12.4,23.6,12.4a3.71,3.71,0,0,0,3.8-.3,3.47,3.47,0,0,0,1.4-3.5l-4.5-26.3,19.1-18.6a3.65,3.65,0,0,0,.9-3.7,3.46,3.46,0,0,0-2.9-2.4L597.5,409,586,385.6l-.3-.5a3.56,3.56,0,0,0-6.4,0l-.5,1L567.5,409l-26.4,3.8a3.59,3.59,0,0,0-2.9,2.4,3.65,3.65,0,0,0,.9,3.7Z"/><path class="cls-2" d="M695.82,282.22H574.92a10.5,10.5,0,0,1-10.5-10.5h0a10.5,10.5,0,0,1,10.5-10.5h120.9a10.5,10.5,0,0,1,10.5,10.5h0A10.5,10.5,0,0,1,695.82,282.22Z"/><path class="cls-2" d="M366.46,20.78H352.7a10.39,10.39,0,0,1-10.39-10.39h0A10.39,10.39,0,0,1,352.7,0h13.76a10.39,10.39,0,0,1,10.39,10.39h0A10.39,10.39,0,0,1,366.46,20.78Z"/><path class="cls-2" d="M179.73,303.8h-15a11.57,11.57,0,0,1-11.5-11.5h0a11.57,11.57,0,0,1,11.5-11.5h15a11.57,11.57,0,0,1,11.5,11.5h0A11.57,11.57,0,0,1,179.73,303.8Z"/><path class="cls-2" d="M194.23,358.8H67.33a11,11,0,0,1-11-11h0a11,11,0,0,1,11-11h126.9a11,11,0,0,1,11,11h0A11.1,11.1,0,0,1,194.23,358.8Z"/><path class="cls-2" d="M163.73,392.8h-24.5a8.49,8.49,0,0,1-8.5-8.5h0a8.49,8.49,0,0,1,8.5-8.5h24.5a8.49,8.49,0,0,1,8.5,8.5h0A8.56,8.56,0,0,1,163.73,392.8Z"/><path class="cls-2" d="M434.1,510H317.5a9.24,9.24,0,0,1-9.2-9.2h0a9.24,9.24,0,0,1,9.2-9.2H434.1a9.24,9.24,0,0,1,9.2,9.2h0A9.18,9.18,0,0,1,434.1,510Z"/><path class="cls-2" d="M639.2,178.9h-31a9,9,0,0,1-9-9h0a9,9,0,0,1,9-9h31a9,9,0,0,1,9,9h0A9.09,9.09,0,0,1,639.2,178.9Z"/><path class="cls-3" d="M507.17,44.54a25.55,25.55,0,0,0-25.6-25.44H281.86a25.55,25.55,0,0,0-25.61,25.44V59.42H507.17Z"/><path class="cls-3" d="M253.45,425.2A25.81,25.81,0,0,0,279.23,451h200V396.26H253.45Zm120.67-10.73h12.19a9.15,9.15,0,1,1,0,18.3H374.12a9.15,9.15,0,0,1,0-18.3Z"/><path class="cls-4" d="M367.18,184.05c-.25,3.29,1.2,5.92,4.3,7.82V176.3A10.71,10.71,0,0,0,367.18,184.05Z"/><path class="cls-5" d="M395.57,196.08,392.41,195V171.5a10.18,10.18,0,0,1,4.65,3.3,8.86,8.86,0,0,0,14.51-10.18c-3.75-5.34-10.45-9.83-19.16-11.45v-.88a8.86,8.86,0,0,0-17.72,0v1.52c-1,.24-2,.51-3,.81-10.3,3.1-18.07,13.09-18.9,24.3s5.07,20.72,15.76,25.76c1.37.65,3.47,1.53,6.13,2.58v28.51a18.71,18.71,0,0,1-8.56-5.57,8.86,8.86,0,0,0-13.8,11.12c5.74,7.13,14.12,11,22.36,12.79v.35a8.86,8.86,0,0,0,17.72.31c14.53-2.19,24.77-11.57,26.41-24.45C420.68,215.66,411.12,201.58,395.57,196.08Zm-20.88-8.19c-3-1.87-4.46-4.44-4.22-7.66a10.5,10.5,0,0,1,4.22-7.58Zm26.55,40.19c-.54,4.22-3.69,7.25-8.83,8.63V214C399.24,217.46,401.82,223.49,401.24,228.08Z"/><path class="cls-6" d="M378.8,419.38h11.82a8.86,8.86,0,1,0,0-17.72H378.8a8.86,8.86,0,1,0,0,17.72Z"/><path class="cls-7" d="M286.86,437a25,25,0,0,1-25-25V384h218.8V366.28H261.87V75.92H507.55V317l17.72,1.43V43.63A42.76,42.76,0,0,0,482.48,1H286.94a42.77,42.77,0,0,0-42.8,42.64V412.05a42.76,42.76,0,0,0,42.72,42.71H480.67V437Zm-25-393.4a25,25,0,0,1,25.07-24.91H482.48a25,25,0,0,1,25.07,24.91V58.2H261.87Z"/><circle class="cls-8" cx="524.47" cy="410.17" r="99.3"/><path class="cls-9" d="M525.27,519.57a110.1,110.1,0,1,0-110.1-110.1A110.11,110.11,0,0,0,525.27,519.57Zm0-200.2a90.1,90.1,0,1,1-90.1,90.1A90.11,90.11,0,0,1,525.27,319.37Z"/><path class="cls-1" d="M575.55,386.16a3.33,3.33,0,0,1-3.33-3.33V365.76a2.91,2.91,0,0,0-2.91-2.91H552.24a3.33,3.33,0,1,1,0-6.66h17.07a9.58,9.58,0,0,1,9.57,9.57v17.07A3.33,3.33,0,0,1,575.55,386.16Z"/><path class="cls-1" d="M475.64,386.16a3.34,3.34,0,0,1-3.34-3.33V365.76a9.59,9.59,0,0,1,9.58-9.57H499a3.33,3.33,0,1,1,0,6.66H481.88a2.91,2.91,0,0,0-2.91,2.91v17.07A3.34,3.34,0,0,1,475.64,386.16Z"/><path class="cls-1" d="M498.31,462.76H481.24a9.59,9.59,0,0,1-9.58-9.57V436.12a3.33,3.33,0,0,1,6.66,0v17.07a2.92,2.92,0,0,0,2.92,2.91h17.07a3.33,3.33,0,0,1,0,6.66Z"/><path class="cls-1" d="M569.31,462.76H552.24a3.33,3.33,0,0,1,0-6.66h17.07a2.92,2.92,0,0,0,2.91-2.91V436.12a3.33,3.33,0,0,1,6.66,0v17.07A9.58,9.58,0,0,1,569.31,462.76Z"/><path class="cls-1" d="M512.69,406.14H495.2a9.58,9.58,0,0,1-9.57-9.57V379.08a9.58,9.58,0,0,1,9.57-9.57h17.49a9.58,9.58,0,0,1,9.57,9.57v17.49A9.58,9.58,0,0,1,512.69,406.14Zm-17.49-30a2.91,2.91,0,0,0-2.91,2.91v17.49a2.91,2.91,0,0,0,2.91,2.91h17.49a2.91,2.91,0,0,0,2.91-2.91V379.08a2.92,2.92,0,0,0-2.91-2.91Z"/><path class="cls-1" d="M512.69,449.44H495.2a9.58,9.58,0,0,1-9.57-9.57V422.38a9.58,9.58,0,0,1,9.57-9.57h17.49a9.58,9.58,0,0,1,9.57,9.57v17.49A9.58,9.58,0,0,1,512.69,449.44Zm-17.49-30a2.91,2.91,0,0,0-2.91,2.91v17.49a2.91,2.91,0,0,0,2.91,2.91h17.49a2.92,2.92,0,0,0,2.91-2.91V422.38a2.91,2.91,0,0,0-2.91-2.91Z"/><path class="cls-1" d="M556,406.14H538.5a9.59,9.59,0,0,1-9.58-9.57V379.08a9.59,9.59,0,0,1,9.58-9.57H556a9.59,9.59,0,0,1,9.58,9.57v17.49A9.59,9.59,0,0,1,556,406.14Zm-17.48-30a2.92,2.92,0,0,0-2.92,2.91v17.49a2.91,2.91,0,0,0,2.92,2.91H556a2.91,2.91,0,0,0,2.92-2.91V379.08a2.92,2.92,0,0,0-2.92-2.91Z"/><path class="cls-1" d="M560.15,429.46h-7.91V418.22a5.42,5.42,0,0,0-5.42-5.41H534.34a5.42,5.42,0,0,0-5.42,5.41v12.49a5.42,5.42,0,0,0,5.42,5.41h11.24V444a5.41,5.41,0,0,0,5.41,5.41h9.16a5.42,5.42,0,0,0,5.41-5.41v-9.16A5.42,5.42,0,0,0,560.15,429.46Zm-24.57-10h10v10h-10Zm23.32,23.31h-6.66v-6.66h6.66Z"/></svg>