<svg id="Layer_1" data-name="Layer 1" xmlns="http://www.w3.org/2000/svg" xmlns:xlink="http://www.w3.org/1999/xlink" viewBox="0 0 775 521.2"><defs><style>.cls-1{fill:url(#linear-gradient);}.cls-2{fill:url(#linear-gradient-2);}.cls-3{fill:url(#linear-gradient-3);}.cls-4{fill:url(#linear-gradient-4);}.cls-5{fill:#fff;}.cls-6{fill:#d3e0f4;}.cls-7{fill:url(#linear-gradient-5);}</style><linearGradient id="linear-gradient" x1="642" y1="313.9" x2="273.23" y2="0.1" gradientTransform="matrix(1, 0, 0, -1, 0, 338.5)" gradientUnits="userSpaceOnUse"><stop offset="0" stop-color="#4777f0"/><stop offset="1" stop-color="#1153fc"/></linearGradient><linearGradient id="linear-gradient-2" x1="490.61" y1="297.68" x2="346.7" y2="206.73" gradientTransform="matrix(1, 0, 0, -1, 0, 338.5)" gradientUnits="userSpaceOnUse"><stop offset="0" stop-color="#7cd1ff"/><stop offset="0.99" stop-color="#0cc2ed"/></linearGradient><linearGradient id="linear-gradient-3" x1="470.38" y1="329.69" x2="326.47" y2="238.75" xlink:href="#linear-gradient-2"/><linearGradient id="linear-gradient-4" x1="450.2" y1="361.62" x2="306.29" y2="270.67" xlink:href="#linear-gradient-2"/><linearGradient id="linear-gradient-5" x1="646.9" y1="335.15" x2="475.9" y2="478.15" gradientTransform="matrix(1, 0, 0, 1, 0, 0)" xlink:href="#linear-gradient-2"/></defs><title>Artboard 1</title><path class="cls-1" d="M600,125.6V320l-.6-1.3a8.74,8.74,0,0,0-7.8-4.9,8.63,8.63,0,0,0-7.8,4.9l-1.2,2.4V185.9H175.9V398.2a41.27,41.27,0,0,0,41.2,41.2H524.7l7.6,7.4-1.7,10.1H217.1a58.62,58.62,0,0,1-58.6-58.6V125.6A58.62,58.62,0,0,1,217.1,67H541.4A58.68,58.68,0,0,1,600,125.6Zm-17.5,42.8V125.6a41.27,41.27,0,0,0-41.2-41.2H217.1a41.27,41.27,0,0,0-41.2,41.2v42.8Z"/><path class="cls-2" d="M354.1,102.7h0a24.4,24.4,0,1,0-.1,48.8h.1a24.4,24.4,0,0,0,0-48.8Zm4.8,29.3a7,7,0,0,1-4.9,2h0a7,7,0,0,1,.1-13.9h0a6.94,6.94,0,0,1,6.9,7A7.07,7.07,0,0,1,358.9,132Z"/><path class="cls-3" d="M283.7,102.4h0a24.4,24.4,0,1,0-.1,48.8h.1a24.4,24.4,0,1,0,0-48.8Zm4.8,29.4a7,7,0,0,1-4.9,2h0a7,7,0,1,1,0-13.9h0a7,7,0,0,1,4.9,11.9Z"/><path class="cls-4" d="M213.3,102.2h0a24.4,24.4,0,1,0-.1,48.8h.1a24.4,24.4,0,0,0,0-48.8Zm4.8,29.3a7,7,0,0,1-4.9,2h0a7,7,0,1,1,0-13.9h0a7,7,0,0,1,6.4,4.3A6.86,6.86,0,0,1,218.1,131.5Z"/><path class="cls-5" d="M563.1,434.5l3.1,3-.7,4.1-3.8,22.2a3.66,3.66,0,0,0,1.4,3.5,3.71,3.71,0,0,0,3.8.3l23.6-12.4,23.6,12.4a3.71,3.71,0,0,0,3.8-.3,3.47,3.47,0,0,0,1.4-3.5l-4.5-26.3,19.1-18.6a3.65,3.65,0,0,0,.9-3.7,3.46,3.46,0,0,0-2.9-2.4L605.5,409,594,385.6l-.3-.5a3.56,3.56,0,0,0-6.4,0l-.5,1L575.5,409l-26.4,3.8a3.59,3.59,0,0,0-2.9,2.4,3.65,3.65,0,0,0,.9,3.7Z"/><path class="cls-6" d="M555.7,21H434.8a10.5,10.5,0,0,1-10.5-10.5h0A10.5,10.5,0,0,1,434.8,0H555.7a10.5,10.5,0,0,1,10.5,10.5h0A10.5,10.5,0,0,1,555.7,21Z"/><path class="cls-6" d="M372.8,21H358.9a10.5,10.5,0,0,1-10.5-10.5h0A10.5,10.5,0,0,1,358.9,0h13.9a10.5,10.5,0,0,1,10.5,10.5h0A10.5,10.5,0,0,1,372.8,21Z"/><path class="cls-6" d="M126,303.8H111a11.57,11.57,0,0,1-11.5-11.5h0A11.57,11.57,0,0,1,111,280.8h15a11.57,11.57,0,0,1,11.5,11.5h0A11.57,11.57,0,0,1,126,303.8Z"/><path class="cls-6" d="M140.5,358.8H13.6a11,11,0,0,1-11-11h0a11,11,0,0,1,11-11H140.5a11,11,0,0,1,11,11h0A11.1,11.1,0,0,1,140.5,358.8Z"/><path class="cls-6" d="M110,392.8H85.5a8.49,8.49,0,0,1-8.5-8.5h0a8.49,8.49,0,0,1,8.5-8.5H110a8.49,8.49,0,0,1,8.5,8.5h0A8.56,8.56,0,0,1,110,392.8Z"/><path class="cls-6" d="M442.1,510H325.5a9.24,9.24,0,0,1-9.2-9.2h0a9.24,9.24,0,0,1,9.2-9.2H442.1a9.24,9.24,0,0,1,9.2,9.2h0A9.18,9.18,0,0,1,442.1,510Z"/><path class="cls-6" d="M647.2,178.9h-31a9,9,0,0,1-9-9h0a9,9,0,0,1,9-9h31a9,9,0,0,1,9,9h0A9.09,9.09,0,0,1,647.2,178.9Z"/><circle class="cls-5" cx="567.93" cy="401.19" r="93.34"/><path class="cls-7" d="M567.93,295.57A105.62,105.62,0,1,0,673.55,401.19,105.74,105.74,0,0,0,567.93,295.57Zm70.34,65H608.55V330.85A81.91,81.91,0,0,1,638.27,360.57Zm10.9,40.62a81.27,81.27,0,0,1-1.63,16.25h-39v-32.5h39A81.42,81.42,0,0,1,649.17,401.19Zm-162.49,0a81.42,81.42,0,0,1,1.63-16.25h39v32.5h-39A81.27,81.27,0,0,1,486.68,401.19Zm65-16.25h32.5v32.5h-32.5Zm32.5-63.36v39h-32.5v-39a81.82,81.82,0,0,1,32.5,0Zm-56.88,9.27v29.72H497.59A81.88,81.88,0,0,1,527.3,330.85Zm-29.71,111H527.3v29.71A81.85,81.85,0,0,1,497.59,441.82Zm54.09,39v-39h32.5v39a81.82,81.82,0,0,1-32.5,0Zm56.87-9.28V441.82h29.72A81.88,81.88,0,0,1,608.55,471.53Z"/></svg>