<svg id="Layer_1" data-name="Layer 1" xmlns="http://www.w3.org/2000/svg" xmlns:xlink="http://www.w3.org/1999/xlink" viewBox="0 0 775 521.2"><defs><style>.cls-1{fill:url(#linear-gradient);}.cls-2{fill:#fff;}.cls-3{fill:#d3e0f4;}.cls-4{fill:url(#linear-gradient-2);}.cls-5{fill:url(#linear-gradient-3);}.cls-6{fill:url(#linear-gradient-4);}.cls-7{fill:url(#linear-gradient-5);}.cls-8{fill:url(#linear-gradient-6);}.cls-9{fill:url(#linear-gradient-7);}.cls-10{fill:url(#linear-gradient-8);}.cls-11{fill:url(#linear-gradient-9);}.cls-12{fill:url(#linear-gradient-10);}.cls-13{fill:url(#linear-gradient-11);}.cls-14{fill:url(#linear-gradient-12);}</style><linearGradient id="linear-gradient" x1="582.19" y1="49.6" x2="219.45" y2="487.47" gradientUnits="userSpaceOnUse"><stop offset="0" stop-color="#4777f0"/><stop offset="1" stop-color="#1153fc"/></linearGradient><linearGradient id="linear-gradient-2" x1="608.04" y1="147.86" x2="260.56" y2="484.38" gradientUnits="userSpaceOnUse"><stop offset="0" stop-color="#7cd1ff"/><stop offset="0.99" stop-color="#0cc2ed"/></linearGradient><linearGradient id="linear-gradient-3" x1="516.89" y1="53.75" x2="169.41" y2="390.27" xlink:href="#linear-gradient-2"/><linearGradient id="linear-gradient-4" x1="576.57" y1="115.37" x2="229.09" y2="451.89" xlink:href="#linear-gradient-2"/><linearGradient id="linear-gradient-5" x1="516.82" y1="53.67" x2="169.34" y2="390.2" xlink:href="#linear-gradient-2"/><linearGradient id="linear-gradient-6" x1="608.11" y1="147.94" x2="260.63" y2="484.46" xlink:href="#linear-gradient-2"/><linearGradient id="linear-gradient-7" x1="577.74" y1="116.57" x2="230.26" y2="453.1" xlink:href="#linear-gradient-2"/><linearGradient id="linear-gradient-8" x1="543.18" y1="80.9" x2="195.71" y2="417.42" xlink:href="#linear-gradient-2"/><linearGradient id="linear-gradient-9" x1="549.8" y1="87.73" x2="202.33" y2="424.26" xlink:href="#linear-gradient-2"/><linearGradient id="linear-gradient-10" x1="571.63" y1="110.27" x2="224.15" y2="446.79" xlink:href="#linear-gradient-2"/><linearGradient id="linear-gradient-11" x1="575.07" y1="113.83" x2="227.59" y2="450.35" xlink:href="#linear-gradient-2"/><linearGradient id="linear-gradient-12" x1="706.4" y1="868.39" x2="461.32" y2="1049.7" gradientTransform="translate(0 -559.34)" xlink:href="#linear-gradient-2"/></defs><title>Artboard 1 copy 2</title><path class="cls-1" d="M222.27,452a26.24,26.24,0,0,1-26.21-26.21V200.15a10,10,0,0,1,.73-3.74l.76-1.9h0l47.6-119a10.07,10.07,0,0,1,9.38-6.34h266a10,10,0,0,1,9.36,6.35l48.23,120.57a10.22,10.22,0,0,1,.86,4.07V425.83A26.24,26.24,0,0,1,552.73,452Zm-6-26.21a6,6,0,0,0,6,6H552.73a6,6,0,0,0,6-6V210.24H216.24ZM397.59,190.06H554L513.65,89.34H397.59Zm-176.54,0H377.41V89.34H261.35Z"/><path class="cls-2" d="M563.1,434.5l3.1,3-.7,4.1-3.8,22.2a3.66,3.66,0,0,0,1.4,3.5,3.71,3.71,0,0,0,3.8.3l23.6-12.4,23.6,12.4a3.71,3.71,0,0,0,3.8-.3,3.47,3.47,0,0,0,1.4-3.5l-4.5-26.3,19.1-18.6a3.65,3.65,0,0,0,.9-3.7,3.46,3.46,0,0,0-2.9-2.4L605.5,409,594,385.6l-.3-.5a3.56,3.56,0,0,0-6.4,0l-.5,1L575.5,409l-26.4,3.8a3.59,3.59,0,0,0-2.9,2.4,3.65,3.65,0,0,0,.9,3.7Z"/><path class="cls-3" d="M555.7,31H434.8a10.5,10.5,0,0,1-10.5-10.5h0A10.5,10.5,0,0,1,434.8,10H555.7a10.5,10.5,0,0,1,10.5,10.5h0A10.5,10.5,0,0,1,555.7,31Z"/><path class="cls-3" d="M372.8,31H358.9a10.5,10.5,0,0,1-10.5-10.5h0A10.5,10.5,0,0,1,358.9,10h13.9a10.5,10.5,0,0,1,10.5,10.5h0A10.5,10.5,0,0,1,372.8,31Z"/><path class="cls-3" d="M133,303.8H118a11.57,11.57,0,0,1-11.5-11.5h0A11.57,11.57,0,0,1,118,280.8h15a11.57,11.57,0,0,1,11.5,11.5h0A11.57,11.57,0,0,1,133,303.8Z"/><path class="cls-3" d="M147.5,358.8H20.6a11,11,0,0,1-11-11h0a11,11,0,0,1,11-11H147.5a11,11,0,0,1,11,11h0A11.1,11.1,0,0,1,147.5,358.8Z"/><path class="cls-3" d="M117,392.8H92.5a8.49,8.49,0,0,1-8.5-8.5h0a8.49,8.49,0,0,1,8.5-8.5H117a8.49,8.49,0,0,1,8.5,8.5h0A8.56,8.56,0,0,1,117,392.8Z"/><path class="cls-3" d="M442.1,510H325.5a9.24,9.24,0,0,1-9.2-9.2h0a9.24,9.24,0,0,1,9.2-9.2H442.1a9.24,9.24,0,0,1,9.2,9.2h0A9.18,9.18,0,0,1,442.1,510Z"/><path class="cls-3" d="M647.2,178.9h-31a9,9,0,0,1-9-9h0a9,9,0,0,1,9-9h31a9,9,0,0,1,9,9h0A9.09,9.09,0,0,1,647.2,178.9Z"/><path class="cls-3" d="M512.23,282.81c-.31-.23-.24-.57-.24-.88q0-4.81,0-9.63c0-.32-.07-.65.24-.89Z"/><path class="cls-4" d="M497.59,290.88a24.42,24.42,0,0,0-.77,4c-2.83,13-13.87,23.29-27.14,24.65-11.94,1.23-21.82-2.83-29-12.72a21.22,21.22,0,0,1-2.67-5.37,1.2,1.2,0,0,1,.25-1.35c1.33-1.54,2.61-3.13,4-4.81.22.67.37,1.23.58,1.76,3.63,9.34,10.4,14.91,20.32,16.13a24.74,24.74,0,0,0,27.67-21.4c.78-5.74.88-11.61-1.07-17.28a25.37,25.37,0,0,0-24.46-17.07,25,25,0,0,0-15.86,6.41,144.64,144.64,0,0,0-17.58,18.7c-1.41,1.73-2.79,3.49-4.19,5.26-.28-.28-.15-.6-.15-.87a44.26,44.26,0,0,0,0-4.61,8.68,8.68,0,0,1,2.4-7c4.7-5.58,9.37-11.18,15.06-15.82,4.37-3.56,9-6.6,14.65-7.76,11.19-2.29,20.78.84,28.8,8.78a30.21,30.21,0,0,1,9,19.31c0,.16,0,.34.2.41v.4c-.25.2-.2.48-.2.74v8c0,.26-.05.53.2.73Z"/><path class="cls-5" d="M305,248.62c-7.33-4.15-15.18-4.75-23.12-4.26-15.57.94-29.47,11.74-33.09,26.2-3.37,13.43-.71,25.67,9.44,35.62a32.16,32.16,0,0,0,22.17,9.2,41.5,41.5,0,0,0,19-3.41,26.31,26.31,0,0,0,6.45-4.2,1.69,1.69,0,0,0,.6-1.38q0-12.15,0-24.29c0-.8-.25-.92-1-.92-8.06,0-16.13,0-24.19,0-.92,0-1.21-.24-1.16-1.16.08-1.47.05-2.95,0-4.42,0-.62.12-.86.82-.86q15.57,0,31.12,0c.66,0,.76.22.76.8q0,16.47,0,32.93a2,2,0,0,1-.63,1.4,31.23,31.23,0,0,1-12.1,8.37c-11.9,4.7-23.91,5.22-35.64-.33-12.76-6-20.31-16.33-22.7-30.23a40.63,40.63,0,0,1,2.16-22.86A42.13,42.13,0,0,1,262.76,244c8.33-4.71,17.33-6.22,26.79-5.59a52.78,52.78,0,0,1,12.73,2.11c2.72.87,2.73.85,2.73,3.68Z"/><path class="cls-6" d="M416.84,300c0-6.06.06-12.12,0-18.17A25,25,0,0,0,399,258.4c-14.58-4.24-29.85,5.24-32,20.26-.87,5.93-1,12,1.08,17.86a25.45,25.45,0,0,0,24.73,16.83,23.84,23.84,0,0,0,7.81-1.67c.71-.27.85-.1.83.59,0,1.48-.08,3,0,4.42.05.91-.31,1.26-1.11,1.56a23.79,23.79,0,0,1-10.25,1.47c-11.51-.89-20.12-6.47-25.91-16.37a28.83,28.83,0,0,1-3.93-14.65c0-4.11-.21-8.22.57-12.31,2.33-12.26,13-22.66,25.25-24.91,17.94-3.27,34.73,9.56,37,27.45a29.1,29.1,0,0,1,.21,3.5c0,12.08,0,24.16,0,36.23,0,.95-.27,1.19-1.16,1.14a40.44,40.44,0,0,0-4.12,0c-.88,0-1.17-.17-1.16-1.12.05-6.22,0-12.45,0-18.67Z"/><path class="cls-7" d="M305,260.75c-.51-.06-.73-.39-1-.59a23.42,23.42,0,0,0-11-4.29c-5.06-.68-10.15-1.07-15.14.3-8.89,2.45-15.59,7.63-18.24,16.67-3.24,11,.59,23.49,12,29.18a24.77,24.77,0,0,0,13.08,2.26,36.28,36.28,0,0,0,10.19-2.06,1.13,1.13,0,0,0,.91-1.26q-.07-3.91,0-7.83c0-.72-.21-.88-.9-.87-4.58,0-9.17,0-13.75,0-.79,0-1-.19-1-1,.07-1.54.06-3.08,0-4.62,0-.68.21-.83.85-.82q10,0,20,0c.6,0,.8.14.79.77q0,8.89,0,17.77a1.38,1.38,0,0,1-.61,1.17,21.11,21.11,0,0,1-9,4c-5.94,1.29-11.91,1.71-17.88.16A29.71,29.71,0,0,1,252.56,285c-.77-6.14-.45-12.18,2.33-17.84a31,31,0,0,1,21.93-17.24,41.75,41.75,0,0,1,26.94,2.87,1.82,1.82,0,0,1,1.28,2C304.94,256.73,305,258.73,305,260.75Z"/><path class="cls-8" d="M451.13,284.5a24.58,24.58,0,0,0,2.68,9,20.27,20.27,0,0,0,4.12,5.4c6.93,6.45,17.06,2.82,20.56-4.14a13,13,0,0,0,1.49-5.26c.13-3.31.43-6.64-.23-9.91a13.84,13.84,0,0,0-20.63-9.26,30.77,30.77,0,0,0-7,6.13q-12.37,13.32-23.49,27.71c-.31.41-.64.81-1.13,1.42,0-3.4,0-6.54,0-9.67a1.25,1.25,0,0,1,.39-.78,255.2,255.2,0,0,1,22.85-26,23.37,23.37,0,0,1,12.38-6.83,18.65,18.65,0,0,1,15.31,4.09,19.92,19.92,0,0,1,8,15.93c.05,3.37.28,6.76-.45,10.1a20.47,20.47,0,0,1-16.13,15.84c-8.13,1.45-15.83-2-20.45-9.25a24.12,24.12,0,0,1-3.24-7.62c-.07-.31-.24-.6,0-.94C447.81,288.58,449.4,286.62,451.13,284.5Z"/><path class="cls-9" d="M401.4,299.19c0,2.22,0,4.28,0,6.34,0,.51-.41.66-.74.86a16.22,16.22,0,0,1-9.91,2.25c-9.8-.68-17.6-7.44-19.1-17.13-.9-5.72-1.1-11.61,1.4-17.17a20.78,20.78,0,0,1,21-12.18,20.32,20.32,0,0,1,17.44,15.25,22.17,22.17,0,0,1,.63,5.56c0,11.91,0,23.82,0,35.73,0,.88-.21,1.15-1.11,1.1-1.43-.08-2.87-.06-4.31,0-.77,0-1-.16-1-1,.05-3,0-6,0-9,0-9.07,0-18.13,0-27.2a14,14,0,1,0-28.07-.21,53.63,53.63,0,0,0,.19,8.31,14,14,0,0,0,15.31,11.54,19.6,19.6,0,0,0,4.29-1A18.09,18.09,0,0,0,401.4,299.19Z"/><path class="cls-10" d="M320,299.27c0-6-.1-12,0-18.07a30.1,30.1,0,0,1,24.84-29.6,32.13,32.13,0,0,1,18.9,1.76,17.88,17.88,0,0,1,3.07,1.67c.41.28.45.46.08.83a37.61,37.61,0,0,0-3.52,3.84c-.35.44-.62.41-1.08.2-9.44-4.27-18.48-3.38-26.8,2.67-5.78,4.2-8.44,10.31-9,17.32-.34,4-.13,8-.14,11.94q0,13.46,0,26.91c0,.81-.17,1.1-1,1.06-1.47-.07-2.95-.07-4.42,0-.77,0-.94-.22-.94-1,0-6.52,0-13,0-19.57Z"/><path class="cls-11" d="M331.08,299.78c0-5.75-.06-11.51,0-17.26.12-8.3,3.68-14.63,11.2-18.37,5.48-2.73,11.21-2.73,16.95-.71,1.24.44,1.21.5.56,1.65a24.8,24.8,0,0,0-1.84,3.77c-.24.65-.51.71-1.15.47-5.61-2.14-12.49-.5-16.16,3.84a13.09,13.09,0,0,0-3.11,7.78c-.13,2.07-.07,4.15-.07,6.22q0,15.75,0,31.51c0,.83-.13,1.19-1.08,1.13a38.16,38.16,0,0,0-4.41,0c-.77,0-.93-.22-.93-.95C331.09,312.49,331.08,306.14,331.08,299.78Z"/><path class="cls-12" d="M434.11,263.5v-1.15q0-19.11,0-38.22c0-.86.16-1.17,1.08-1.11,1.5.09,3,0,4.51,0,.59,0,.82.13.82.77q0,16.15,0,32.31a1.15,1.15,0,0,1-.36,1A54.65,54.65,0,0,0,434.11,263.5Z"/><path class="cls-13" d="M445.3,254.05a1.42,1.42,0,0,1-.12-.93c0-9.69,0-19.38,0-29.07,0-.86.24-1.06,1.06-1,1.5.07,3,0,4.51,0,.63,0,.86.13.86.82q0,12.63,0,25.26c0,.33,0,.65-.35.86A42.38,42.38,0,0,0,445.3,254.05Z"/><circle class="cls-14" cx="577.68" cy="404.28" r="111.98"/><path class="cls-2" d="M549.86,441.25a6.34,6.34,0,0,0,8.8.8l80.75-65.77a6.27,6.27,0,0,0,.9-8.79,6.19,6.19,0,0,0-8.8-.9l-76,61.82-30.69-36a6.3,6.3,0,1,0-9.6,8.17Z"/></svg>